<svg width="329" height="107" viewBox="0 0 329 107" fill="none" xmlns="http://www.w3.org/2000/svg">
<path d="M99.5 63.5L91 85L130.5 84L134.5 80.5L124 62L99.5 63.5Z" fill="#242424"/>
<path d="M273.5 59.5L265 81L304.5 80L308.5 76.5L298 58L273.5 59.5Z" fill="#242424"/>
<path d="M12 52.5H2.70946L3.20946 75L12 76V52.5Z" fill="#9D2934"/>
<path d="M128.841 57.4142L11.2266 59L11.2095 74.9023L4.20946 75L0.370351 81.3858L1.76907 87.9333L60 85.8434L94.5154 86.8845C93.9768 78.8402 95.9818 64 111.709 64C127.83 64 130.005 77.2294 128.841 85.8434L269.5 83L270.5 73C271.885 69.2401 277 62.5 286.5 62.5C297 62.5 303.5 68 304.5 73.2967L304.5 82L323 79.5L327.209 73L327.209 62L325.709 61L317.709 53.0399L298.507 53.0399L128.841 57.4142Z" fill="#9F343E"/>
<path fill-rule="evenodd" clip-rule="evenodd" d="M286.709 54.5H299.709C314.709 54.5 326.809 61 327.209 63L326.209 56L323.209 42L320.209 21L315.209 13L9.70946 9L4.70946 21.5L9.20946 48L11.2095 59H77.2095L169.209 57L286.709 54.5ZM12.7095 55.5V32.5H32.7095V55.5H12.7095ZM313.209 42L310.209 21H314.209L315.709 23.5V27.5H319.709L321.709 42H313.209ZM42.2095 55.5L41.7095 34H59.2095L60.2095 55.5H42.2095ZM166.209 52.5V32.5H68.7095V54.5H77.2095L166.209 52.5ZM207.709 40.5L206.709 25.5L286.709 24.5V47.5L212.209 50V40.5H207.709ZM309.709 41.5L294.209 42V24.5H307.209L309.709 41.5Z" fill="#2A2A2A"/>
<path d="M9.70946 20.5L10 52.5H3.20946C2.87612 41.8333 2.40946 18.8 3.20946 12C4.00946 5.2 9.87612 3.16667 12.7095 3L156.709 4.5L168.709 1L261.209 2.5L270.709 0H302.209L318.209 10L320.209 21.5C318.209 17.1 312.709 14 309.209 13H17.2095C12.0095 13 10.0428 18 9.70946 20.5Z" fill="#E7E0CD"/>
</svg>
